<?xml version="1.0" standalone="no"?>
<!DOCTYPE svg PUBLIC "-//W3C//DTD SVG 20010904//EN"
 "http://www.w3.org/TR/2001/REC-SVG-20010904/DTD/svg10.dtd">
<svg version="1.0" xmlns="http://www.w3.org/2000/svg"
 width="365.000000pt" height="344.000000pt" viewBox="0 0 365.000000 344.000000"
 preserveAspectRatio="xMidYMid meet">

<g transform="translate(0.000000,344.000000) scale(0.100000,-0.100000)"
fill="#000000" stroke="none">
<path d="M1595 3208 c-49 -5 -126 -18 -170 -29 -606 -153 -1050 -647 -1130
-1256 -84 -638 249 -1253 830 -1533 481 -231 1033 -189 1485 112 114 76 290
248 373 365 270 380 347 870 206 1311 -124 388 -402 711 -762 885 -274 133
-525 176 -832 145z m350 -19 c514 -61 963 -394 1169 -865 350 -802 -67 -1727
-898 -1993 -157 -50 -261 -66 -446 -66 -186 0 -289 16 -447 66 -626 200 -1052
807 -1020 1453 19 382 156 701 414 967 152 156 306 261 499 340 227 93 485
127 729 98z"/>
<path d="M1836 2848 c-3 -13 -8 -58 -11 -100 l-7 -77 34 -6 c41 -8 110 -2 88
7 -8 4 -32 9 -53 13 l-38 6 7 90 c5 63 4 89 -4 89 -7 0 -14 -10 -16 -22z"/>
<path d="M1654 2808 c3 -29 6 -74 6 -100 0 -46 1 -48 28 -48 45 0 102 12 102
21 0 5 -22 9 -49 9 l-48 0 -7 53 c-3 28 -6 67 -6 85 0 23 -5 32 -16 32 -14 0
-16 -8 -10 -52z"/>
<path d="M1492 2831 c-22 -13 -44 -211 -23 -211 5 0 11 13 14 29 5 23 13 30
48 39 38 10 43 9 64 -15 13 -16 24 -22 28 -16 5 8 -107 184 -116 183 -1 0 -8
-4 -15 -9z m41 -70 c29 -44 27 -51 -16 -51 -28 0 -29 2 -23 31 3 17 6 38 6 45
0 21 5 17 33 -25z"/>
<path d="M2114 2730 c-32 -39 -60 -77 -62 -85 -5 -22 15 -18 32 6 14 20 17 20
58 7 37 -13 43 -19 46 -46 2 -18 8 -32 13 -32 6 0 9 43 7 107 -4 136 -13 140
-94 43z m69 -33 c-4 -23 -9 -26 -27 -21 -36 11 -38 20 -10 54 25 29 28 31 35
13 4 -11 5 -31 2 -46z"/>
<path d="M1235 2739 c-3 -8 4 -41 15 -73 31 -92 26 -96 -40 -31 -75 74 -88 67
-60 -30 11 -39 20 -74 20 -80 0 -5 -27 17 -60 50 -33 32 -63 56 -67 52 -9 -9
127 -147 144 -147 19 0 16 38 -7 105 -11 32 -20 60 -20 63 0 3 27 -20 59 -51
91 -87 104 -77 65 50 -29 94 -40 115 -49 92z"/>
<path d="M2295 2659 c-29 -50 -44 -87 -40 -97 5 -13 10 -9 27 18 12 19 23 37
25 39 1 2 14 -4 28 -13 21 -14 25 -24 25 -66 0 -28 5 -50 10 -50 6 0 10 25 10
55 0 42 4 55 15 55 8 0 22 14 31 31 15 30 15 32 -8 56 -13 14 -35 31 -50 39
l-26 14 -47 -81z m104 17 c13 -16 0 -56 -19 -56 -15 0 -61 23 -57 29 1 3 9 18
16 33 15 29 33 27 60 -6z"/>
<path d="M2470 2538 l-60 -73 46 -42 c58 -52 80 -45 28 8 l-38 39 23 24 24 25
35 -29 c20 -16 40 -26 45 -23 6 4 -7 21 -29 39 l-39 33 22 22 22 22 31 -27
c17 -14 37 -26 43 -26 14 1 -68 80 -82 80 -6 0 -38 -33 -71 -72z"/>
<path d="M927 2522 c-20 -21 -37 -42 -37 -48 0 -5 29 -38 64 -73 l65 -64 45
37 c41 33 57 56 40 56 -3 0 -23 -13 -44 -30 l-37 -29 -23 24 -24 25 34 35 c44
46 30 59 -16 14 l-35 -34 -20 24 -20 24 38 39 c23 24 31 38 22 38 -8 0 -32
-17 -52 -38z"/>
<path d="M2617 2399 c-50 -18 -84 -35 -81 -41 4 -5 19 -7 35 -4 22 4 33 0 53
-25 29 -34 32 -49 14 -67 -9 -9 -9 -15 -1 -23 7 -7 24 12 56 68 76 132 68 141
-76 92z m93 -5 c0 -7 -40 -74 -44 -74 -1 0 -13 11 -25 24 l-23 25 33 15 c37
16 59 19 59 10z"/>
<path d="M820 2400 c0 -12 133 -120 149 -120 24 0 8 20 -58 74 -68 54 -91 66
-91 46z"/>
<path d="M770 2333 c0 -10 21 -45 46 -78 25 -33 40 -61 34 -63 -5 -2 -33 1
-60 7 -61 13 -110 14 -110 2 0 -9 75 -25 168 -37 45 -6 52 -4 52 11 0 14 -116
175 -126 175 -2 0 -4 -8 -4 -17z"/>
<path d="M2769 2257 c-8 -17 -8 -35 0 -62 12 -43 2 -65 -30 -65 -19 0 -49 46
-49 77 0 12 -3 14 -11 6 -27 -27 27 -113 70 -113 39 0 54 28 47 91 -6 48 -4
58 10 63 21 8 50 -17 58 -50 6 -24 26 -34 26 -14 0 16 -31 74 -44 82 -25 17
-66 8 -77 -15z"/>
<path d="M1810 2093 c0 -5 114 -116 254 -248 l253 -240 -563 -3 c-361 -1 -564
-6 -564 -12 0 -6 203 -11 566 -12 l565 -3 -255 -243 c-224 -213 -281 -273
-247 -260 4 2 126 115 270 252 165 158 261 256 259 266 -3 17 -516 510 -530
510 -5 0 -8 -3 -8 -7z"/>
</g>
</svg>
