<svg xmlns="http://www.w3.org/2000/svg" width="172.629" height="45.367" viewBox="0 0 172.629 45.367">
  <g id="Group_45" data-name="Group 45" transform="translate(-141 -25.955)">
    <g id="Group_43" data-name="Group 43">
      <g id="noun-laurel-wreath-1383528" transform="translate(141 26.77)">
        <path id="Path_461" data-name="Path 461" d="M47.792,22.228l-.406.228a19.419,19.419,0,0,0,.2-2.26c.173-.178.1-.1.377-.4,1.08-.035,1.536-1.031,1.487-2.186a2.19,2.19,0,0,0-1.512,2.022c-.134.109-.253.193-.347.268a22.654,22.654,0,0,0-.05-2.28l.307-.421c.748-.129,1.4-.848,1.18-2.285A2.126,2.126,0,0,0,47.8,17.049c-.243.243-.188.193-.287.287-.055-.7-.129-1.368-.278-2.27l.243-.426c.763-.253,1.234-1.085.892-2.344a2.094,2.094,0,0,0-.952,2.2l-.228.3c-.139-.788-.3-1.531-.5-2.25.069-.159.035-.074.178-.421.664-.317,1.08-1.15.624-2.364a2.072,2.072,0,0,0-.694,2.23c-.169.283-.134.228-.173.3-.183-.689-.4-1.4-.6-2.042.04-.154.055-.218.139-.565a1.742,1.742,0,0,0,.268-2.339,2.147,2.147,0,0,0-.347,2.23c-.119.3-.084.223-.154.4-.213-.62-.431-1.2-.669-1.789a3.535,3.535,0,0,0-.04-.6,2.161,2.161,0,0,0-.51-2.518,3.033,3.033,0,0,0,.431,2.429v.5l-.411-.2a1.754,1.754,0,0,0-1.784-1.175,1.744,1.744,0,0,0,1.8,1.308c.3.193.218.144.4.268.268.659.52,1.348.778,2.141l-.327-.173a1.794,1.794,0,0,0-1.774-1.289,1.749,1.749,0,0,0,1.784,1.427l.4.3c.243.773.466,1.591.61,2.186l-.342-.193a1.8,1.8,0,0,0-1.75-1.4c.287,1.125,1.031,1.591,1.754,1.541.139.1.248.2.4.322.159.684.307,1.422.431,2.22-.124-.084-.059-.04-.342-.218-.317-1.13-1.14-1.561-1.72-1.487.2.952.768,1.69,1.715,1.66l.387.347c.1.738.183,1.447.228,2.245l-.342-.248a1.791,1.791,0,0,0-1.665-1.636c.169,1.244.9,1.779,1.65,1.789l.372.382c.04.813.035,1.616,0,2.25-.129-.114-.064-.059-.337-.283a1.773,1.773,0,0,0-1.581-1.779c.1,1.3.738,1.873,1.546,1.938.178.2.149.164.352.416a21.17,21.17,0,0,1-.248,2.206l-.317-.322a1.8,1.8,0,0,0-1.487-1.938c-.035,1.318.634,1.982,1.417,2.1l.322.456a20.816,20.816,0,0,1-.52,2.186l-.3-.357a1.8,1.8,0,0,0-1.3-2.106,1.859,1.859,0,0,0,1.234,2.265c.055.089.223.4.278.5a20,20,0,0,1-.813,2.072c-.1-.164-.055-.089-.263-.4a1.824,1.824,0,0,0-1.11-2.28,1.877,1.877,0,0,0,.991,2.433l.228.525a17.065,17.065,0,0,1-1.066,1.948c-.089-.183-.05-.1-.228-.446a1.8,1.8,0,0,0-.867-2.438,1.88,1.88,0,0,0,.753,2.587c.134.426.129.392.173.56a19.092,19.092,0,0,1-1.308,1.784c-.074-.2-.04-.109-.188-.5a1.84,1.84,0,0,0-.6-2.582,1.916,1.916,0,0,0,.471,2.721c.079.4.079.372.114.595a20.767,20.767,0,0,1-1.487,1.6c-.059-.218-.035-.119-.144-.5a1.9,1.9,0,0,0-.342-2.711,1.936,1.936,0,0,0,.2,2.83c.04.426.045.466.055.62-.461.431-1.12.991-1.68,1.413a3.7,3.7,0,0,0-.1-.54,1.933,1.933,0,0,0-.084-2.805c-.952,1.105-.857,2.235-.089,2.919v.634c-.649.5-1.264.9-1.8,1.234-.03-.238,0-.134-.069-.56a1.994,1.994,0,0,0,.159-2.885c-1.155,1.214-1.056,2.26-.342,2.974a2.239,2.239,0,0,1-.045.639c-.624.387-1.259.743-1.9,1.08a5.322,5.322,0,0,0-.03-.58,2.058,2.058,0,0,0,.372-2.944c-1.234,1.021-1.3,2.2-.57,3.038-.064.5-.05.362-.089.649-.738.377-1.14.56-1.982.942v-.59c1.259-1.12,1.1-2.339.56-2.974-1.373.991-1.487,2.215-.778,3.088l-.114.674c-1.868.872-1.551.719-1.982.937l-.04-.624c1.308-1.289,1.254-2.443.684-3.137-1.69,1.13-1.685,2.369-.9,3.241-.059.525-.045.377-.079.694-.843.431-1.819.957-2.845,1.556-1.026-.6-1.982-1.125-2.845-1.556-.035-.317,0-.169-.079-.694.783-.872.788-2.111-.9-3.241-.57.694-.624,1.849.684,3.137l-.04.624c-.421-.218-.1-.064-1.982-.937L22,38.782c.694-.872.595-2.082-.778-3.088a2.081,2.081,0,0,0,.56,2.974v.6c-.828-.382-1.229-.565-1.982-.942-.04-.287-.025-.164-.089-.649.729-.843.664-2.017-.57-3.038a2.04,2.04,0,0,0,.372,2.944c-.025.441,0,.332-.03.58-.639-.337-1.274-.694-1.9-1.08a4.22,4.22,0,0,0-.045-.639c.714-.729.813-1.774-.342-2.974a2,2,0,0,0,.159,2.885c-.055.426-.04.322-.069.56-.535-.337-1.15-.743-1.8-1.234V35.05c.768-.684.862-1.814-.089-2.919a1.947,1.947,0,0,0-.084,2.805c-.079.416-.059.307-.1.54-.56-.421-1.219-.991-1.68-1.413a3.776,3.776,0,0,1,.055-.62c.758-.565.991-1.641.188-2.835a1.9,1.9,0,0,0-.342,2.711c-.109.392-.084.292-.144.5a20.766,20.766,0,0,1-1.487-1.6c.035-.223.035-.2.114-.595A1.922,1.922,0,0,0,12.39,28.9a1.844,1.844,0,0,0-.6,2.582c-.149.377-.114.283-.188.5A19.091,19.091,0,0,1,10.288,30.2c.045-.169.04-.134.173-.56a1.892,1.892,0,0,0,.753-2.587,1.812,1.812,0,0,0-.867,2.438c-.178.347-.139.263-.228.446a17.064,17.064,0,0,1-1.066-1.948l.228-.525A1.865,1.865,0,0,0,10.3,25.028a1.824,1.824,0,0,0-1.085,2.285c-.208.312-.159.238-.263.4a20,20,0,0,1-.8-2.072c.055-.094.223-.406.278-.5a1.847,1.847,0,0,0,1.234-2.265,1.794,1.794,0,0,0-1.3,2.106l-.3.357a20.817,20.817,0,0,1-.5-2.166l.322-.456c.783-.119,1.452-.778,1.417-2.1A1.815,1.815,0,0,0,7.82,22.565l-.342.287a21.172,21.172,0,0,1-.248-2.225c.2-.253.173-.218.352-.416.808-.064,1.442-.634,1.546-1.938a1.768,1.768,0,0,0-1.581,1.779c-.273.223-.208.169-.337.283-.03-.634-.035-1.437,0-2.25l.372-.382c.753,0,1.487-.545,1.65-1.789a1.791,1.791,0,0,0-1.665,1.636l-.342.248c.045-.8.124-1.487.228-2.245L7.84,15.2c.947.03,1.512-.709,1.715-1.66a1.8,1.8,0,0,0-1.72,1.487c-.283.178-.218.134-.342.218.124-.8.273-1.536.431-2.22.149-.124.258-.218.4-.322a1.736,1.736,0,0,0,1.754-1.541,1.8,1.8,0,0,0-1.75,1.4l-.342.193c.144-.595.367-1.413.61-2.186l.4-.3a1.744,1.744,0,0,0,1.784-1.427A1.794,1.794,0,0,0,9,10.135l-.327.173c.258-.793.5-1.487.778-2.141l.4-.268a1.744,1.744,0,0,0,1.8-1.308A1.775,1.775,0,0,0,9.872,7.766l-.411.2v-.5A3.033,3.033,0,0,0,9.887,5.02a2.161,2.161,0,0,0-.525,2.518c-.03.406,0,.283-.04.6-.238.59-.456,1.17-.669,1.789-.069-.173-.035-.094-.154-.4A2.147,2.147,0,0,0,8.152,7.3,1.742,1.742,0,0,0,8.42,9.639c.084.347.1.411.139.565-.208.644-.421,1.353-.6,2.042-.04-.069,0,0-.173-.3a2.084,2.084,0,0,0-.694-2.23c-.456,1.214-.04,2.047.624,2.364.144.347.109.263.178.421-.178.719-.342,1.462-.5,2.25l-.228-.3a2.09,2.09,0,0,0-.952-2.2c-.342,1.259.129,2.092.892,2.344l.243.426c-.149.9-.223,1.566-.278,2.27-.1-.094-.045-.045-.287-.287A2.118,2.118,0,0,0,5.56,14.878c-.223,1.437.431,2.156,1.18,2.285l.307.421A22.655,22.655,0,0,0,7,19.864c-.094-.074-.213-.159-.347-.268a2.136,2.136,0,0,0-1.5-1.982c-.045,1.155.411,2.151,1.487,2.186.278.3.2.218.377.4a19.419,19.419,0,0,0,.2,2.26l-.406-.228C6.417,20.87,5.565,20.374,5,20.374c.114,1.561.991,2.136,1.809,2.032.213.173.173.144.451.352a20.152,20.152,0,0,0,.466,2.21c-.193-.069-.109-.035-.461-.169-.58-1.328-1.522-1.73-2.111-1.636.317,1.561,1.264,2.062,2.136,1.809l.52.3a20.815,20.815,0,0,0,.748,2.121l-.5-.1c-.867-1.353-1.9-1.487-2.4-1.328.59,1.6,1.606,1.918,2.448,1.487.287.114.243.094.58.213a20.593,20.593,0,0,0,1.031,1.982h-.55c-.991-1.175-2.092-1.269-2.637-.991.62,1.194,1.7,1.868,2.716,1.145l.639.124a18.888,18.888,0,0,0,1.264,1.854c-.178.025-.347.05-.57.069-1.259-1.105-2.379-.912-2.82-.56.843,1.14,2.012,1.641,2.929.734h.674a21.7,21.7,0,0,0,1.487,1.65l-.575.159c-1.3-.857-2.438-.684-2.934-.144.952,1.021,2.285,1.373,3.068.3.5-.045.327-.03.7-.074.649.634,1.08.991,1.65,1.462-.292.129-.178.079-.575.243-1.551-.748-2.612-.283-2.974.268,1.165.922,2.478,1.075,3.142-.119.362-.079.292-.064.7-.169.317.243.922.719,1.784,1.279l-.58.352c-1.75-.56-2.676,0-2.974.644,1.269.758,2.617.838,3.162-.5l.7-.253q.922.6,1.868,1.1l-.55.4c-1.784-.416-2.711.307-2.974.991,1.338.669,2.746.535,3.147-.872l.724-.317c.644.342,1.3.664,1.948.957l-.535.466c-1.735-.287-2.7.5-2.9,1.3,1.9.674,2.894-.04,3.112-1.189l.679-.406,1.943.917-.555.5c-1.69-.248-2.6.624-2.761,1.487,1.759.5,2.756-.287,2.974-1.4l.709-.406c.872.446,1.923.991,3,1.645-3.038,1.814-6.374,4.257-7.558,6.795a2.756,2.756,0,0,0,.208.5,9.223,9.223,0,0,1,2.047-2.88A25.055,25.055,0,0,1,27.3,42.479a25.505,25.505,0,0,1,5.625,4.208,9.5,9.5,0,0,1,2.052,2.88,3.1,3.1,0,0,0,.2-.5c-1.185-2.538-4.52-4.981-7.558-6.795,1.08-.634,2.131-1.2,3-1.645l.709.406c.213,1.11,1.209,1.9,2.974,1.4-.164-.882-1.071-1.754-2.761-1.487l-.555-.5,1.943-.917.679.406c.218,1.15,1.209,1.864,3.112,1.189-.2-.808-1.165-1.586-2.9-1.3l-.535-.466c.649-.292,1.3-.615,1.948-.957l.7.332c.4,1.408,1.809,1.541,3.147.872-.243-.684-1.17-1.408-2.974-.991l-.535-.406q.952-.52,1.878-1.11l.7.253c.545,1.353,1.893,1.274,3.162.5-.307-.624-1.234-1.2-2.974-.644l-.565-.327A21.449,21.449,0,0,0,39.569,35.6c.411.1.342.089.7.169.659,1.194,1.982,1.041,3.142.119-.372-.55-1.432-.991-2.974-.268-.4-.164-.283-.114-.575-.243.57-.471.991-.828,1.65-1.462.372.045.223.03.7.074.783,1.071,2.116.719,3.068-.3-.5-.54-1.631-.714-2.934.144l-.575-.159a21.7,21.7,0,0,0,1.487-1.65h.674c.917.907,2.087.406,2.929-.734-.441-.352-1.561-.545-2.82.56a3.66,3.66,0,0,1-.57-.069,18.888,18.888,0,0,0,1.274-1.829l.639-.124c.991.724,2.1.05,2.716-1.145-.545-.3-1.636-.208-2.637.991h-.55a20.592,20.592,0,0,0,1.031-1.982c.337-.119.292-.1.58-.213.843.406,1.859.084,2.448-1.487-.5-.173-1.531-.025-2.4,1.328l-.5.1a20.817,20.817,0,0,0,.748-2.121l.5-.3c.872.253,1.819-.248,2.136-1.809-.59-.094-1.531.307-2.111,1.631-.352.134-.268.1-.461.169a20.152,20.152,0,0,0,.466-2.21c.278-.208.238-.178.451-.352.838.1,1.7-.5,1.809-2.032C49.04,20.374,48.188,20.87,47.792,22.228Z" transform="translate(-5 -5.02)" fill="#fff"/>
      </g>
      <g id="noun-law-3307042" transform="translate(151.092 25.955)">
        <path id="Path_4" data-name="Path 4" d="M137.745,464H136v.872h13.087V464H137.745Z" transform="translate(-130.329 -440.443)" fill="#fff"/>
        <path id="Path_5" data-name="Path 5" d="M230.419,168a3.046,3.046,0,0,0-.872.128v12.087a.436.436,0,0,1-.046.2l-.557,1.114h2.951l-.557-1.114a.436.436,0,0,1-.046-.2V168.128A3.046,3.046,0,0,0,230.419,168Z" transform="translate(-218.204 -160.584)" fill="#fff"/>
        <path id="Path_6" data-name="Path 6" d="M241.745,33.389v-.516a.872.872,0,1,0-1.745,0v.516A4.8,4.8,0,0,1,241.745,33.389Z" transform="translate(-228.657 -32)" fill="#fff"/>
        <path id="Path_7" data-name="Path 7" d="M184,432.872h7.852L191.2,432h-6.544Z" transform="translate(-175.711 -410.188)" fill="#fff"/>
        <path id="Path_8" data-name="Path 8" d="M48.667,312a2.618,2.618,0,0,0,5.162,0Z" transform="translate(-47.758 -296.731)" fill="#fff"/>
        <path id="Path_9" data-name="Path 9" d="M68.85,224l-1.428,3.926h3.117L69.111,224Z" transform="translate(-65.49 -213.53)" fill="#fff"/>
        <path id="Path_10" data-name="Path 10" d="M53.987,78.544a6.532,6.532,0,0,1-5.774-3.464l-.534-1a3.926,3.926,0,0,0-6.929,0l-.534,1a6.532,6.532,0,0,1-5.774,3.464H32v.872h5.613a4.361,4.361,0,0,0,2.873-1.08l1.148-1a3.919,3.919,0,0,1,5.162,0h0l1.148,1a4.361,4.361,0,0,0,2.873,1.079H56.43v-.872Z" transform="translate(-32 -69.819)" fill="#fff"/>
        <path id="Path_11" data-name="Path 11" d="M371.248,314.181A2.622,2.622,0,0,0,373.829,312h-5.162A2.622,2.622,0,0,0,371.248,314.181Z" transform="translate(-350.308 -296.731)" fill="#fff"/>
        <path id="Path_12" data-name="Path 12" d="M388.85,224l-1.428,3.926h3.117L389.111,224Z" transform="translate(-368.04 -213.53)" fill="#fff"/>
      </g>
    </g>
    <path id="Path_1344" data-name="Path 1344" d="M17.139-5.554,16.8,0H.842V-.952q.427-.037,1-.116A3.936,3.936,0,0,0,2.6-1.221,1.132,1.132,0,0,0,3.21-1.7a1.587,1.587,0,0,0,.171-.781V-14.7a1.715,1.715,0,0,0-.134-.726,1.236,1.236,0,0,0-.647-.519,4.159,4.159,0,0,0-.909-.275q-.531-.1-.848-.153v-.952h9.509v.952q-.391.037-.922.1a5.381,5.381,0,0,0-.922.189,1,1,0,0,0-.635.494,1.764,1.764,0,0,0-.159.763V-3.43a5.764,5.764,0,0,0,.11,1.27,1.1,1.1,0,0,0,.427.684,1.859,1.859,0,0,0,.885.3,14.138,14.138,0,0,0,1.569.067,15.2,15.2,0,0,0,1.9-.116,2.29,2.29,0,0,0,1.324-.507A8.534,8.534,0,0,0,15.2-3.485a17.958,17.958,0,0,0,1.044-2.069ZM36.78,0H27.344V-.952a11.772,11.772,0,0,0,1.547-.238q.889-.189.889-.47a1.5,1.5,0,0,0-.018-.22,1.527,1.527,0,0,0-.1-.33L28.18-5.8H22.2q-.206.5-.455,1.172t-.431,1.2a6.3,6.3,0,0,0-.273.989A3.619,3.619,0,0,0,21-2.014q0,.391.592.665a6.436,6.436,0,0,0,1.97.4V0h-7.1V-.952a6.563,6.563,0,0,0,.909-.128,2.45,2.45,0,0,0,.8-.287,3.1,3.1,0,0,0,.848-.72,3.815,3.815,0,0,0,.58-1.013L22.43-9.973q1.422-3.442,3.143-7.593h2.441q2.393,5.884,3.748,9.3T34.07-2.6a2.817,2.817,0,0,0,.4.665,2.607,2.607,0,0,0,.7.568,2.77,2.77,0,0,0,.793.293,5.7,5.7,0,0,0,.818.122Zm-9.1-7.007-2.507-6.261L22.7-7.007Zm34.044-9.338a3.364,3.364,0,0,0-.757.165,4.968,4.968,0,0,0-.745.323,2.187,2.187,0,0,0-.8.7,4.811,4.811,0,0,0-.433.916Q58.316-12.39,56.918-8.3T54.007.2H51.54L46.979-12.672,42.859.2H40.4q-2.039-5.933-3.125-9.137T35.44-14.319a2.619,2.619,0,0,0-.525-.958,4.594,4.594,0,0,0-.757-.6,2.439,2.439,0,0,0-.7-.323,6.006,6.006,0,0,0-.861-.165v-.952h9.241v.928q-.816.1-1.218.189a3.949,3.949,0,0,0-.634.189.5.5,0,0,0-.268.208.49.49,0,0,0-.049.2,1.262,1.262,0,0,0,.043.33q.043.159.092.366.293.951,1.184,3.609t2.2,6.6l3.948-12.611h2.59L54.282-4.31Q55.3-7.447,55.9-9.436t1.019-3.405q.244-.867.391-1.453a4.269,4.269,0,0,0,.146-1.013.541.541,0,0,0-.238-.439,2.183,2.183,0,0,0-.64-.317,4.933,4.933,0,0,0-.883-.177q-.542-.067-.944-.1v-.977h6.97ZM82.449,0h-6.86q-1.55-2.38-2.8-3.979T69.607-8h-.635v5.444a1.6,1.6,0,0,0,.159.745,1.228,1.228,0,0,0,.635.513,3.718,3.718,0,0,0,.653.2,8.094,8.094,0,0,0,.861.146V0h-9.2V-.952l.934-.073a3.266,3.266,0,0,0,.848-.146,1.132,1.132,0,0,0,.61-.476,1.559,1.559,0,0,0,.171-.769V-14.7a1.6,1.6,0,0,0-.146-.72,1.291,1.291,0,0,0-.635-.525,4.364,4.364,0,0,0-.916-.281q-.537-.11-.867-.146v-.952h9.509v.952q-.378.037-.909.1a5.067,5.067,0,0,0-.909.189,1,1,0,0,0-.635.5,1.775,1.775,0,0,0-.159.757v5.835h.513q.952-.867,2.222-2.087t1.965-2q.977-1.086,1.434-1.721a1.992,1.992,0,0,0,.458-1.1q0-.208-.439-.317a7.737,7.737,0,0,0-1.343-.159v-.952h7.532v.952a9.476,9.476,0,0,0-2.293.494,5.916,5.916,0,0,0-1.841,1.166q-1.3,1.17-2.15,2.03t-2.174,2.2q1.171,1.429,2.816,3.5t3.28,4.037a7.824,7.824,0,0,0,.95.958,4.689,4.689,0,0,0,1.182.739,3.173,3.173,0,0,0,.694.208,4.858,4.858,0,0,0,.67.085ZM98.526-15.393a8.573,8.573,0,0,1,2.032,2.832,9.092,9.092,0,0,1,.751,3.784,10.258,10.258,0,0,1-.635,3.6,8.333,8.333,0,0,1-1.831,2.942,8.961,8.961,0,0,1-2.954,2,10.381,10.381,0,0,1-4.041.714,10.235,10.235,0,0,1-3.577-.623,8.838,8.838,0,0,1-2.966-1.807,8.45,8.45,0,0,1-2.014-2.82,8.938,8.938,0,0,1-.745-3.7,9.844,9.844,0,0,1,.726-3.851,8.858,8.858,0,0,1,2-2.96,8.681,8.681,0,0,1,2.985-1.862,10.319,10.319,0,0,1,3.68-.653,10.348,10.348,0,0,1,3.644.635A8.973,8.973,0,0,1,98.526-15.393Zm-3.137,12.4a9.229,9.229,0,0,0,.793-2.519,18.7,18.7,0,0,0,.244-3.179,19.718,19.718,0,0,0-.214-2.928,9.357,9.357,0,0,0-.726-2.537,4.805,4.805,0,0,0-1.392-1.785,3.419,3.419,0,0,0-2.161-.672,3.637,3.637,0,0,0-3.357,2.1A12.5,12.5,0,0,0,87.43-8.594a17.951,17.951,0,0,0,.25,3.069,9.111,9.111,0,0,0,.787,2.519,4.566,4.566,0,0,0,1.392,1.693,3.463,3.463,0,0,0,2.075.605,3.507,3.507,0,0,0,2.075-.611A4.265,4.265,0,0,0,95.389-2.994ZM110.281.476a10.625,10.625,0,0,1-2.96-.4A10.919,10.919,0,0,1,105-.854L104.153,0h-1.038l-.159-6.262h1.05a16.305,16.305,0,0,0,.9,1.884A9.186,9.186,0,0,0,106.18-2.6a6.562,6.562,0,0,0,1.666,1.333A4.353,4.353,0,0,0,110-.757a3.633,3.633,0,0,0,2.545-.812,2.66,2.66,0,0,0,.885-2.046,2.223,2.223,0,0,0-.751-1.7,6.264,6.264,0,0,0-2.325-1.193q-1.025-.331-1.886-.613T106.851-7.7a5.351,5.351,0,0,1-2.594-1.992,5.173,5.173,0,0,1-.848-2.9,4.531,4.531,0,0,1,.439-1.95,5.185,5.185,0,0,1,1.282-1.681,6.3,6.3,0,0,1,2.063-1.137,8.224,8.224,0,0,1,2.734-.44,8.793,8.793,0,0,1,2.7.4,11.124,11.124,0,0,1,1.978.806l.745-.732h1.062l.1,5.908h-1.05q-.366-.954-.861-1.952a8.492,8.492,0,0,0-1.044-1.658,4.744,4.744,0,0,0-1.379-1.132,3.8,3.8,0,0,0-1.831-.422,3.115,3.115,0,0,0-2.155.746,2.376,2.376,0,0,0-.836,1.846,2.193,2.193,0,0,0,.726,1.7,6.287,6.287,0,0,0,2.264,1.162q.9.306,1.843.611t1.672.587a6.017,6.017,0,0,1,2.692,1.889,4.772,4.772,0,0,1,.922,2.989,4.814,4.814,0,0,1-.525,2.176,5.047,5.047,0,0,1-1.416,1.748A7.193,7.193,0,0,1,113.272.06,9.713,9.713,0,0,1,110.281.476Z" transform="translate(196.158 57.161)" fill="#fff"/>
  </g>
</svg>
