<svg xmlns="http://www.w3.org/2000/svg" width="111.824" height="40.921" viewBox="0 0 111.824 40.921">
  <g id="VIEW-ALL-AREAS" transform="matrix(0.914, 0.407, -0.407, 0.914, -80.682, 214.928)">
    <path id="Path_1424" data-name="Path 1424" d="M280.033-256.88c0,.046-.206,2.133-.459,4.656-.6,5.964-.6,5.62.206,5.62h.665l.184-2.087.161-2.087,1.262.092c1.537.138,1.835.436,2.73,2.821.551,1.468.711,1.72,1.285,1.858a1.717,1.717,0,0,0,.734.046c.184-.184-1.376-3.922-1.858-4.45l-.528-.551.665-.367a2.513,2.513,0,0,0,1.147-2.454c0-1.766-1.032-2.523-3.785-2.8-.872-.092-1.789-.206-2-.252C280.217-256.9,280.033-256.926,280.033-256.88Zm4.289,2.064c.482.436.551.688.459,1.445-.161,1.193-.642,1.491-2.408,1.491h-1.491l.161-1.055c.069-.6.138-1.445.138-1.881v-.8l1.285.138A2.987,2.987,0,0,1,284.322-254.816Z" transform="translate(-215.024)" fill="#fff"/>
    <path id="Path_1425" data-name="Path 1425" d="M235.3-255.762c-.39.069-.665.8-1.881,5.069-.78,2.753-1.422,5.069-1.422,5.161s.3.161.665.161c.619,0,.688-.092.986-1.33l.321-1.307,1.124-.161c.642-.069,1.7-.161,2.363-.161l1.193-.023.573,1.262c.528,1.193.6,1.262,1.193,1.124a5.4,5.4,0,0,0,.665-.184c.023-.023-1.032-2.225-2.317-4.909-1.422-2.89-2.5-4.84-2.684-4.84C235.922-255.877,235.578-255.808,235.3-255.762Zm2.638,6.147c-.046.023-.895.138-1.858.229l-1.766.161.459-1.56c.252-.872.573-2.041.711-2.615l.275-1.032,1.124,2.363A21.875,21.875,0,0,1,237.941-249.615Z" transform="translate(-178.689 -0.774)" fill="#fff"/>
    <path id="Path_1426" data-name="Path 1426" d="M323.936-248.829c-.528,1.583-2.638,9.4-2.546,9.473a44.312,44.312,0,0,0,6.216,1.72,1.172,1.172,0,0,0,.115-.6c0-.436-.321-.573-2.409-1.147-2.707-.734-2.546-.413-1.743-3l.367-1.193,2.271.642a17.288,17.288,0,0,0,2.34.6,2.767,2.767,0,0,0,.184-.551c.138-.459.023-.551-1.4-.963-.849-.252-1.835-.528-2.2-.619-.872-.206-.918-.367-.482-1.835.275-.986.459-1.262.734-1.17a28.353,28.353,0,0,0,4.5,1.055,1.643,1.643,0,0,0,.184-.528c.069-.367-.344-.551-2.982-1.285C324.991-248.829,323.982-249.012,323.936-248.829Z" transform="translate(-247.573 -6.17)" fill="#fff"/>
    <path id="Path_1427" data-name="Path 1427" d="M171.413-238.762c-.229.046-.413.161-.413.229,0,.161,3.234,9.336,3.349,9.45a23.548,23.548,0,0,0,2.959-.918c2.271-.78,2.867-1.078,2.867-1.4,0-.688-.482-.688-2.477.046a17.823,17.823,0,0,1-2.2.688c-.183,0-.849-1.537-1.766-4.129a21.084,21.084,0,0,0-1.674-4.106A4.694,4.694,0,0,0,171.413-238.762Z" transform="translate(-131.681 -13.874)" fill="#fff"/>
    <path id="Path_1428" data-name="Path 1428" d="M358.962-228.555c-.826.78-2.569,2.431-3.877,3.647l-2.386,2.2.688.367c.688.344.711.321,1.583-.573a3.6,3.6,0,0,1,1.17-.895,11.871,11.871,0,0,1,2.133.918l1.835.918-.138,1.353c-.138,1.239-.115,1.376.367,1.629.275.138.573.206.642.115.161-.138.918-7.982.94-9.657.023-.78-.069-.986-.551-1.193a2.809,2.809,0,0,0-.757-.275A13.466,13.466,0,0,0,358.962-228.555Zm1.743.55c-.069.229-.184,1.376-.275,2.523a6.316,6.316,0,0,1-.344,2.133,10.515,10.515,0,0,1-1.7-.734l-1.491-.734,1.766-1.789C360.453-228.417,360.935-228.715,360.705-228Z" transform="translate(-271.703 -20.733)" fill="#fff"/>
    <path id="Path_1429" data-name="Path 1429" d="M135.467-221.482c-.5.367-.734-.138,2.156,5.23l2.133,4.014,2.225-1.17c3.051-1.583,3.3-1.766,3.12-2.271-.229-.551-.459-.5-2.615.642a6.614,6.614,0,0,1-2.064.895c-.069-.069-1.032-1.789-2.133-3.831a30.178,30.178,0,0,0-2.179-3.762C135.994-221.78,135.719-221.665,135.467-221.482Z" transform="translate(-104.061 -27.095)" fill="#fff"/>
    <path id="Path_1430" data-name="Path 1430" d="M400.337-208.537a3.151,3.151,0,0,0-1.674,2.363,5.111,5.111,0,0,0,1.583,2.89,7.059,7.059,0,0,1,1.055,1.491,1.843,1.843,0,0,1-1.17,1.95c-.963.252-2.592-.688-3.418-1.973a3.22,3.22,0,0,0-.872-1.078c-.092-.023-.275.229-.436.551-.229.482-.161.665.551,1.537,1.468,1.789,3.945,2.753,5.276,2.064a3.454,3.454,0,0,0,1.56-2.638c0-.642-.252-1.124-1.147-2.271-1.674-2.11-1.789-2.363-1.216-3.12a1.618,1.618,0,0,1,2.156-.5,6.782,6.782,0,0,1,2.317,2.317c.092.275.161.275.482,0a1.02,1.02,0,0,0,.39-.711c0-.6-2.454-2.707-3.441-2.982A2.11,2.11,0,0,0,400.337-208.537Z" transform="translate(-304.523 -37.035)" fill="#fff"/>
    <path id="Path_1431" data-name="Path 1431" d="M103.8-201.541l-.6.459,1.56,5.092c1.583,5.138,1.72,5.413,2.477,4.679.229-.229.206-.528-.161-1.56l-.436-1.307,1.812-1.4L110.288-197l1.1.711c1.285.826,1.422.849,1.95.3.344-.413.161-.55-4.2-3.211-2.523-1.537-4.633-2.8-4.679-2.8A3.034,3.034,0,0,0,103.8-201.541Zm4.014,2.982a6.807,6.807,0,0,1,1.307.918,13.444,13.444,0,0,1-2.684,2.064,19.279,19.279,0,0,1-1.56-4.335l-.161-.528.895.528C106.09-199.614,107.077-199,107.811-198.559Z" transform="translate(-79.433 -42.31)" fill="#fff"/>
    <path id="Path_1432" data-name="Path 1432" d="M40.011-161.5c-.3.413-.3.573-.069.849.161.206,1.468,1.674,2.89,3.28,1.422,1.629,2.523,2.936,2.477,2.936-.069,0-1.9-.665-4.06-1.491-4.106-1.56-4.381-1.606-4.7-.55-.115.321.528,1.193,2.615,3.555a41.941,41.941,0,0,1,2.707,3.211c-.023.046-1.835-.619-4.014-1.445-3.808-1.422-3.991-1.468-4.289-1.078a1.169,1.169,0,0,0-.275.642,78.483,78.483,0,0,0,9.565,3.532,1.473,1.473,0,0,0,.665-.688c.344-.6.321-.619-2.408-3.67-1.514-1.674-2.821-3.165-2.913-3.3a22.1,22.1,0,0,1,4.014,1.33c3.211,1.216,4.2,1.514,4.358,1.285.528-.78.642-1.124.5-1.4-.229-.344-6.537-7.5-6.652-7.5A2.473,2.473,0,0,0,40.011-161.5Z" transform="translate(-25.557 -73.135)" fill="#fff"/>
    <path id="Path_1433" data-name="Path 1433" d="M17.5-100.035c-.115.275-.665,1.606-1.216,2.959L15.3-94.622l1.4.573c4.725,1.973,7.592,3.12,7.845,3.12a11.565,11.565,0,0,0,1.445-2.913c.918-2.225,1.124-2.936.895-3.074-.619-.413-.849-.138-1.674,1.9A22.338,22.338,0,0,1,24.2-92.695c-.092.092-.551.023-1.009-.184-.459-.184-1.216-.482-1.652-.665l-.78-.344.895-2.225c.5-1.239.895-2.248.872-2.271a3.631,3.631,0,0,0-.551-.206c-.459-.138-.573.069-1.353,1.973-.459,1.17-.872,2.156-.895,2.2a6.8,6.8,0,0,1-2.661-1.193,17.821,17.821,0,0,1,.8-2.271,22.557,22.557,0,0,0,.8-2.2c0-.115-.206-.252-.482-.321C17.869-100.494,17.663-100.379,17.5-100.035Z" transform="translate(-11.695 -120.58)" fill="#fff"/>
    <path id="Path_1434" data-name="Path 1434" d="M9.231-57.4a1.4,1.4,0,0,0-.092.665c.046.023,2.225.619,4.886,1.33,4.909,1.307,5.138,1.33,5.161.344,0-.229-.3-.459-.734-.619C17.558-55.959,9.69-58,9.507-58,9.438-58,9.3-57.725,9.231-57.4Z" transform="translate(-6.934 -153.28)" fill="#fff"/>
    <path id="Path_1435" data-name="Path 1435" d="M1.242-39.335c0,.734-.229.6,5.62,3.693,1.239.688,2.156,1.262,2,1.33-.161.046-2.11.528-4.335,1.055-3.877.918-4.06.986-4.266,1.583a1.512,1.512,0,0,0-.115.734c.046.046,2.454-.482,5.345-1.216l5.276-1.307v-1.583L6.174-37.523C3.65-38.876,1.517-40,1.425-40,1.311-40,1.242-39.7,1.242-39.335Z" transform="translate(0 -167.151)" fill="#fff"/>
  </g>
</svg>
